<mxfile host="app.diagrams.net" modified="2024-05-30T07:41:28.844Z" agent="Mozilla/5.0 (X11; Linux x86_64; rv:122.0) Gecko/20100101 Firefox/122.0" etag="74k9nHtPeMZOaLSbn-R4" version="24.4.10" type="device">
  <diagram name="Page-1" id="5eADkXLlVPsaKaASjtu7">
    <mxGraphModel dx="1434" dy="1878" grid="1" gridSize="10" guides="1" tooltips="1" connect="1" arrows="1" fold="1" page="1" pageScale="1" pageWidth="850" pageHeight="1100" math="0" shadow="0">
      <root>
        <mxCell id="0" />
        <mxCell id="1" parent="0" />
        <mxCell id="K_oSzEdBCMBv6lHufnhM-94" value="" style="whiteSpace=wrap;html=1;direction=west;" parent="1" vertex="1">
          <mxGeometry x="243.75" y="-30" width="410" height="520" as="geometry" />
        </mxCell>
        <mxCell id="K_oSzEdBCMBv6lHufnhM-95" value="Organisateur" style="shape=umlActor;verticalLabelPosition=bottom;verticalAlign=top;html=1;outlineConnect=0;" parent="1" vertex="1">
          <mxGeometry x="180" y="335" width="30" height="60" as="geometry" />
        </mxCell>
        <mxCell id="K_oSzEdBCMBv6lHufnhM-96" value="Créer un nouvel évenement" style="ellipse;whiteSpace=wrap;html=1;" parent="1" vertex="1">
          <mxGeometry x="357.5" y="265" width="126.25" height="50" as="geometry" />
        </mxCell>
        <mxCell id="K_oSzEdBCMBv6lHufnhM-97" value="Créer un stand" style="ellipse;whiteSpace=wrap;html=1;" parent="1" vertex="1">
          <mxGeometry x="413.7500000000001" y="335" width="117.5" height="50" as="geometry" />
        </mxCell>
        <mxCell id="K_oSzEdBCMBv6lHufnhM-98" value="éditer l&#39;évènement" style="ellipse;whiteSpace=wrap;html=1;" parent="1" vertex="1">
          <mxGeometry x="508.7500000000001" y="275" width="120" height="40" as="geometry" />
        </mxCell>
        <mxCell id="K_oSzEdBCMBv6lHufnhM-99" value="ajout d&#39;un festivalier" style="ellipse;whiteSpace=wrap;html=1;" parent="1" vertex="1">
          <mxGeometry x="513.7500000000001" y="385" width="110" height="40" as="geometry" />
        </mxCell>
        <mxCell id="K_oSzEdBCMBv6lHufnhM-100" value="" style="endArrow=none;html=1;rounded=0;entryX=0.008;entryY=0.64;entryDx=0;entryDy=0;entryPerimeter=0;" parent="1" target="K_oSzEdBCMBv6lHufnhM-96" edge="1">
          <mxGeometry width="50" height="50" relative="1" as="geometry">
            <mxPoint x="210" y="370" as="sourcePoint" />
            <mxPoint x="250" y="365" as="targetPoint" />
          </mxGeometry>
        </mxCell>
        <mxCell id="K_oSzEdBCMBv6lHufnhM-101" value="" style="endArrow=none;html=1;rounded=0;" parent="1" target="K_oSzEdBCMBv6lHufnhM-98" edge="1">
          <mxGeometry width="50" height="50" relative="1" as="geometry">
            <mxPoint x="210" y="370" as="sourcePoint" />
            <mxPoint x="260" y="365" as="targetPoint" />
          </mxGeometry>
        </mxCell>
        <mxCell id="K_oSzEdBCMBv6lHufnhM-102" value="" style="endArrow=none;html=1;rounded=0;" parent="1" target="K_oSzEdBCMBv6lHufnhM-97" edge="1">
          <mxGeometry width="50" height="50" relative="1" as="geometry">
            <mxPoint x="210" y="370" as="sourcePoint" />
            <mxPoint x="260" y="365" as="targetPoint" />
          </mxGeometry>
        </mxCell>
        <mxCell id="K_oSzEdBCMBv6lHufnhM-103" value="" style="endArrow=none;html=1;rounded=0;exitX=0;exitY=0.5;exitDx=0;exitDy=0;" parent="1" source="K_oSzEdBCMBv6lHufnhM-99" edge="1">
          <mxGeometry width="50" height="50" relative="1" as="geometry">
            <mxPoint x="320" y="625" as="sourcePoint" />
            <mxPoint x="210" y="370" as="targetPoint" />
          </mxGeometry>
        </mxCell>
        <mxCell id="K_oSzEdBCMBv6lHufnhM-104" value="Editer l&#39;inventaire" style="ellipse;whiteSpace=wrap;html=1;" parent="1" vertex="1">
          <mxGeometry x="343.75" y="420" width="110" height="40" as="geometry" />
        </mxCell>
        <mxCell id="K_oSzEdBCMBv6lHufnhM-105" value="" style="endArrow=none;html=1;rounded=0;exitX=0;exitY=0.5;exitDx=0;exitDy=0;" parent="1" source="K_oSzEdBCMBv6lHufnhM-104" edge="1">
          <mxGeometry width="50" height="50" relative="1" as="geometry">
            <mxPoint x="550.0000000000001" y="395" as="sourcePoint" />
            <mxPoint x="210" y="370" as="targetPoint" />
          </mxGeometry>
        </mxCell>
        <mxCell id="K_oSzEdBCMBv6lHufnhM-106" value="Décrementer les stocks" style="ellipse;whiteSpace=wrap;html=1;" parent="1" vertex="1">
          <mxGeometry x="468.75" y="130" width="135" height="50" as="geometry" />
        </mxCell>
        <mxCell id="K_oSzEdBCMBv6lHufnhM-108" value="" style="endArrow=none;html=1;rounded=0;entryX=0;entryY=0.5;entryDx=0;entryDy=0;" parent="1" target="K_oSzEdBCMBv6lHufnhM-106" edge="1">
          <mxGeometry width="50" height="50" relative="1" as="geometry">
            <mxPoint x="210" y="370" as="sourcePoint" />
            <mxPoint x="253.75" y="165" as="targetPoint" />
          </mxGeometry>
        </mxCell>
        <mxCell id="K_oSzEdBCMBv6lHufnhM-109" value="Utilisateur" style="shape=umlActor;verticalLabelPosition=bottom;verticalAlign=top;html=1;outlineConnect=0;" parent="1" vertex="1">
          <mxGeometry x="180" y="40" width="30" height="60" as="geometry" />
        </mxCell>
        <mxCell id="K_oSzEdBCMBv6lHufnhM-110" value="voir les information sur l&#39;évènement" style="ellipse;whiteSpace=wrap;html=1;" parent="1" vertex="1">
          <mxGeometry x="458.12" y="40" width="160" height="60" as="geometry" />
        </mxCell>
        <mxCell id="K_oSzEdBCMBv6lHufnhM-111" value="Voir liste stand" style="ellipse;whiteSpace=wrap;html=1;" parent="1" vertex="1">
          <mxGeometry x="348.75" y="100" width="120" height="40" as="geometry" />
        </mxCell>
        <mxCell id="K_oSzEdBCMBv6lHufnhM-112" value="Voir le planning" style="ellipse;whiteSpace=wrap;html=1;" parent="1" vertex="1">
          <mxGeometry x="373.75" width="110" height="40" as="geometry" />
        </mxCell>
        <mxCell id="K_oSzEdBCMBv6lHufnhM-113" value="" style="endArrow=none;html=1;rounded=0;entryX=0;entryY=0.5;entryDx=0;entryDy=0;" parent="1" target="K_oSzEdBCMBv6lHufnhM-112" edge="1">
          <mxGeometry width="50" height="50" relative="1" as="geometry">
            <mxPoint x="203.75" y="70" as="sourcePoint" />
            <mxPoint x="253.75" y="20" as="targetPoint" />
          </mxGeometry>
        </mxCell>
        <mxCell id="K_oSzEdBCMBv6lHufnhM-114" value="" style="endArrow=none;html=1;rounded=0;entryX=0;entryY=0.5;entryDx=0;entryDy=0;" parent="1" target="K_oSzEdBCMBv6lHufnhM-110" edge="1">
          <mxGeometry width="50" height="50" relative="1" as="geometry">
            <mxPoint x="203.75" y="70" as="sourcePoint" />
            <mxPoint x="500.0000000000001" y="70" as="targetPoint" />
          </mxGeometry>
        </mxCell>
        <mxCell id="K_oSzEdBCMBv6lHufnhM-115" value="" style="endArrow=none;html=1;rounded=0;entryX=0;entryY=0.5;entryDx=0;entryDy=0;" parent="1" target="K_oSzEdBCMBv6lHufnhM-111" edge="1">
          <mxGeometry width="50" height="50" relative="1" as="geometry">
            <mxPoint x="203.75" y="70" as="sourcePoint" />
            <mxPoint x="253.75" y="20" as="targetPoint" />
          </mxGeometry>
        </mxCell>
        <mxCell id="K_oSzEdBCMBv6lHufnhM-116" value="" style="shape=flexArrow;endArrow=classic;html=1;rounded=0;width=0.1941747572815534;endSize=6.7126213592233;" parent="1" edge="1">
          <mxGeometry width="50" height="50" relative="1" as="geometry">
            <mxPoint x="195" y="330" as="sourcePoint" />
            <mxPoint x="194.71" y="120" as="targetPoint" />
          </mxGeometry>
        </mxCell>
        <mxCell id="l3kWrI6dR-mrmnlJcvzB-1" value="Ajouter une activité" style="ellipse;whiteSpace=wrap;html=1;" vertex="1" parent="1">
          <mxGeometry x="425" y="190" width="135" height="50" as="geometry" />
        </mxCell>
        <mxCell id="l3kWrI6dR-mrmnlJcvzB-4" value="" style="ellipse;whiteSpace=wrap;html=1;" vertex="1" parent="1">
          <mxGeometry x="240" y="300" height="80" as="geometry" />
        </mxCell>
        <mxCell id="l3kWrI6dR-mrmnlJcvzB-6" value="" style="endArrow=none;html=1;rounded=0;entryX=0;entryY=0.5;entryDx=0;entryDy=0;" edge="1" parent="1" target="l3kWrI6dR-mrmnlJcvzB-1">
          <mxGeometry width="50" height="50" relative="1" as="geometry">
            <mxPoint x="210" y="370" as="sourcePoint" />
            <mxPoint x="320" y="310" as="targetPoint" />
          </mxGeometry>
        </mxCell>
        <mxCell id="l3kWrI6dR-mrmnlJcvzB-7" value="" style="whiteSpace=wrap;html=1;direction=west;" vertex="1" parent="1">
          <mxGeometry x="913.75" y="-20" width="410" height="520" as="geometry" />
        </mxCell>
        <mxCell id="l3kWrI6dR-mrmnlJcvzB-8" value="Organisateur" style="shape=umlActor;verticalLabelPosition=bottom;verticalAlign=top;html=1;outlineConnect=0;" vertex="1" parent="1">
          <mxGeometry x="850" y="345" width="30" height="60" as="geometry" />
        </mxCell>
        <mxCell id="l3kWrI6dR-mrmnlJcvzB-9" value="UC6" style="ellipse;whiteSpace=wrap;html=1;" vertex="1" parent="1">
          <mxGeometry x="1027.5" y="275" width="126.25" height="50" as="geometry" />
        </mxCell>
        <mxCell id="l3kWrI6dR-mrmnlJcvzB-10" value="UC8" style="ellipse;whiteSpace=wrap;html=1;" vertex="1" parent="1">
          <mxGeometry x="1083.75" y="345" width="117.5" height="50" as="geometry" />
        </mxCell>
        <mxCell id="l3kWrI6dR-mrmnlJcvzB-11" value="UC7" style="ellipse;whiteSpace=wrap;html=1;" vertex="1" parent="1">
          <mxGeometry x="1178.75" y="285" width="120" height="40" as="geometry" />
        </mxCell>
        <mxCell id="l3kWrI6dR-mrmnlJcvzB-12" value="UC9" style="ellipse;whiteSpace=wrap;html=1;" vertex="1" parent="1">
          <mxGeometry x="1183.75" y="395" width="110" height="40" as="geometry" />
        </mxCell>
        <mxCell id="l3kWrI6dR-mrmnlJcvzB-13" value="" style="endArrow=none;html=1;rounded=0;entryX=0.008;entryY=0.64;entryDx=0;entryDy=0;entryPerimeter=0;" edge="1" parent="1" target="l3kWrI6dR-mrmnlJcvzB-9">
          <mxGeometry width="50" height="50" relative="1" as="geometry">
            <mxPoint x="880" y="380" as="sourcePoint" />
            <mxPoint x="920" y="375" as="targetPoint" />
          </mxGeometry>
        </mxCell>
        <mxCell id="l3kWrI6dR-mrmnlJcvzB-14" value="" style="endArrow=none;html=1;rounded=0;" edge="1" parent="1" target="l3kWrI6dR-mrmnlJcvzB-11">
          <mxGeometry width="50" height="50" relative="1" as="geometry">
            <mxPoint x="880" y="380" as="sourcePoint" />
            <mxPoint x="930" y="375" as="targetPoint" />
          </mxGeometry>
        </mxCell>
        <mxCell id="l3kWrI6dR-mrmnlJcvzB-15" value="" style="endArrow=none;html=1;rounded=0;" edge="1" parent="1" target="l3kWrI6dR-mrmnlJcvzB-10">
          <mxGeometry width="50" height="50" relative="1" as="geometry">
            <mxPoint x="880" y="380" as="sourcePoint" />
            <mxPoint x="930" y="375" as="targetPoint" />
          </mxGeometry>
        </mxCell>
        <mxCell id="l3kWrI6dR-mrmnlJcvzB-16" value="" style="endArrow=none;html=1;rounded=0;exitX=0;exitY=0.5;exitDx=0;exitDy=0;" edge="1" parent="1" source="l3kWrI6dR-mrmnlJcvzB-12">
          <mxGeometry width="50" height="50" relative="1" as="geometry">
            <mxPoint x="990" y="635" as="sourcePoint" />
            <mxPoint x="880" y="380" as="targetPoint" />
          </mxGeometry>
        </mxCell>
        <mxCell id="l3kWrI6dR-mrmnlJcvzB-17" value="UC10" style="ellipse;whiteSpace=wrap;html=1;" vertex="1" parent="1">
          <mxGeometry x="1013.75" y="430" width="110" height="40" as="geometry" />
        </mxCell>
        <mxCell id="l3kWrI6dR-mrmnlJcvzB-18" value="" style="endArrow=none;html=1;rounded=0;exitX=0;exitY=0.5;exitDx=0;exitDy=0;" edge="1" parent="1" source="l3kWrI6dR-mrmnlJcvzB-17">
          <mxGeometry width="50" height="50" relative="1" as="geometry">
            <mxPoint x="1220" y="405" as="sourcePoint" />
            <mxPoint x="880" y="380" as="targetPoint" />
          </mxGeometry>
        </mxCell>
        <mxCell id="l3kWrI6dR-mrmnlJcvzB-19" value="UC4" style="ellipse;whiteSpace=wrap;html=1;" vertex="1" parent="1">
          <mxGeometry x="1138.75" y="140" width="135" height="50" as="geometry" />
        </mxCell>
        <mxCell id="l3kWrI6dR-mrmnlJcvzB-20" value="" style="endArrow=none;html=1;rounded=0;entryX=0;entryY=0.5;entryDx=0;entryDy=0;" edge="1" parent="1" target="l3kWrI6dR-mrmnlJcvzB-19">
          <mxGeometry width="50" height="50" relative="1" as="geometry">
            <mxPoint x="880" y="380" as="sourcePoint" />
            <mxPoint x="923.75" y="175" as="targetPoint" />
          </mxGeometry>
        </mxCell>
        <mxCell id="l3kWrI6dR-mrmnlJcvzB-21" value="Utilisateur" style="shape=umlActor;verticalLabelPosition=bottom;verticalAlign=top;html=1;outlineConnect=0;" vertex="1" parent="1">
          <mxGeometry x="850" y="50" width="30" height="60" as="geometry" />
        </mxCell>
        <mxCell id="l3kWrI6dR-mrmnlJcvzB-22" value="UC2" style="ellipse;whiteSpace=wrap;html=1;" vertex="1" parent="1">
          <mxGeometry x="1128.12" y="50" width="160" height="60" as="geometry" />
        </mxCell>
        <mxCell id="l3kWrI6dR-mrmnlJcvzB-23" value="UC3" style="ellipse;whiteSpace=wrap;html=1;" vertex="1" parent="1">
          <mxGeometry x="1018.75" y="110" width="120" height="40" as="geometry" />
        </mxCell>
        <mxCell id="l3kWrI6dR-mrmnlJcvzB-24" value="UC1" style="ellipse;whiteSpace=wrap;html=1;" vertex="1" parent="1">
          <mxGeometry x="1043.75" y="10" width="110" height="40" as="geometry" />
        </mxCell>
        <mxCell id="l3kWrI6dR-mrmnlJcvzB-25" value="" style="endArrow=none;html=1;rounded=0;entryX=0;entryY=0.5;entryDx=0;entryDy=0;" edge="1" parent="1" target="l3kWrI6dR-mrmnlJcvzB-24">
          <mxGeometry width="50" height="50" relative="1" as="geometry">
            <mxPoint x="873.75" y="80" as="sourcePoint" />
            <mxPoint x="923.75" y="30" as="targetPoint" />
          </mxGeometry>
        </mxCell>
        <mxCell id="l3kWrI6dR-mrmnlJcvzB-26" value="" style="endArrow=none;html=1;rounded=0;entryX=0;entryY=0.5;entryDx=0;entryDy=0;" edge="1" parent="1" target="l3kWrI6dR-mrmnlJcvzB-22">
          <mxGeometry width="50" height="50" relative="1" as="geometry">
            <mxPoint x="873.75" y="80" as="sourcePoint" />
            <mxPoint x="1170" y="80" as="targetPoint" />
          </mxGeometry>
        </mxCell>
        <mxCell id="l3kWrI6dR-mrmnlJcvzB-27" value="" style="endArrow=none;html=1;rounded=0;entryX=0;entryY=0.5;entryDx=0;entryDy=0;" edge="1" parent="1" target="l3kWrI6dR-mrmnlJcvzB-23">
          <mxGeometry width="50" height="50" relative="1" as="geometry">
            <mxPoint x="873.75" y="80" as="sourcePoint" />
            <mxPoint x="923.75" y="30" as="targetPoint" />
          </mxGeometry>
        </mxCell>
        <mxCell id="l3kWrI6dR-mrmnlJcvzB-28" value="" style="shape=flexArrow;endArrow=classic;html=1;rounded=0;width=0.1941747572815534;endSize=6.7126213592233;" edge="1" parent="1">
          <mxGeometry width="50" height="50" relative="1" as="geometry">
            <mxPoint x="865" y="340" as="sourcePoint" />
            <mxPoint x="864.71" y="130" as="targetPoint" />
          </mxGeometry>
        </mxCell>
        <mxCell id="l3kWrI6dR-mrmnlJcvzB-29" value="UC5" style="ellipse;whiteSpace=wrap;html=1;" vertex="1" parent="1">
          <mxGeometry x="1095" y="200" width="135" height="50" as="geometry" />
        </mxCell>
        <mxCell id="l3kWrI6dR-mrmnlJcvzB-30" value="" style="ellipse;whiteSpace=wrap;html=1;" vertex="1" parent="1">
          <mxGeometry x="910" y="310" height="80" as="geometry" />
        </mxCell>
        <mxCell id="l3kWrI6dR-mrmnlJcvzB-31" value="" style="endArrow=none;html=1;rounded=0;entryX=0;entryY=0.5;entryDx=0;entryDy=0;" edge="1" parent="1" target="l3kWrI6dR-mrmnlJcvzB-29">
          <mxGeometry width="50" height="50" relative="1" as="geometry">
            <mxPoint x="880" y="380" as="sourcePoint" />
            <mxPoint x="990" y="320" as="targetPoint" />
          </mxGeometry>
        </mxCell>
      </root>
    </mxGraphModel>
  </diagram>
</mxfile>
